<?xml version="1.0" encoding="UTF-8"?>
<svg version="1.1" xmlns="http://www.w3.org/2000/svg" width="1024" height="1024">
<path d="M0 0 C337.92 0 675.84 0 1024 0 C1024 337.92 1024 675.84 1024 1024 C686.08 1024 348.16 1024 0 1024 C0 686.08 0 348.16 0 0 Z " fill="#FDFBF9" transform="translate(0,0)"/>
<path d="M0 0 C25.10721523 0.00373538 49.82555225 3.74197936 74.27587891 9.31942749 C75.40380859 9.57595093 76.53173828 9.83247437 77.69384766 10.09677124 C141.6757279 24.8076766 202.59527228 47.23517382 262.52587891 73.75692749 C263.25797577 74.08004913 263.99007263 74.40317078 264.74435425 74.73608398 C274.43224514 79.02095708 283.94704615 83.57545132 293.39331055 88.36828613 C296.31612214 89.84499585 299.25333992 91.29225468 302.18994141 92.74130249 C315.78812163 99.47506948 329.24959185 106.39028575 342.50683594 113.77890015 C345.40224766 115.38973139 348.30549402 116.9858174 351.20947266 118.58114624 C388.5787633 139.20093923 424.78749611 162.17599152 459.27587891 187.31942749 C460.00371582 187.84890991 460.73155273 188.37839233 461.48144531 188.92391968 C473.64162385 197.7835854 485.53270269 206.91621997 497.27587891 216.31942749 C496.9145667 221.37779844 494.2239223 223.87973994 490.71337891 227.19442749 C489.89474365 227.98877197 489.89474365 227.98877197 489.05957031 228.79916382 C485.55194731 232.17896403 481.96591941 235.45814292 478.26025391 238.62020874 C475.06577582 241.35563781 471.96043195 244.18946499 468.83837891 247.00692749 C466.3632256 249.24060242 463.88219579 251.46760465 461.40087891 253.69442749 C456.22727241 258.35468389 451.07504678 263.03727999 445.96142578 267.76327515 C444.83696919 268.80141048 443.71066105 269.83754386 442.58251953 270.87167358 C431.83064321 280.74347124 421.47949044 291.00897556 411.15087891 301.31942749 C410.46835052 301.99936768 409.78582214 302.67930786 409.08261108 303.37985229 C399.65800584 312.72672105 399.65800584 312.72672105 390.77148438 322.57870483 C387.93835293 325.87616275 384.89714591 328.98340009 381.90087891 332.13192749 C376.79163893 337.53720985 371.9316981 343.01443907 367.29931641 348.83505249 C365.2930826 351.2983048 363.18839451 353.61796666 361.02587891 355.94442749 C355.23276425 362.31081912 350.14716718 369.2075774 344.97412109 376.07723999 C343.31050969 378.27370451 341.629158 380.45511222 339.93994141 382.63192749 C333.18113477 391.35267799 326.73032978 400.21812357 320.58007812 409.37850952 C319.28904239 411.2998375 317.98831226 413.21430014 316.68603516 415.12802124 C303.6815445 434.32003213 291.94195306 452.21331425 295.77197266 476.46005249 C299.36521862 490.67062976 307.37091011 501.85831965 319.71337891 509.85458374 C328.33648849 514.78395278 336.67618395 515.93940783 346.45898438 516.54916382 C347.71412842 516.63847168 347.71412842 516.63847168 348.99462891 516.72958374 C349.74679687 516.77220337 350.49896484 516.814823 351.27392578 516.85873413 C353.8256582 517.44594377 354.69486787 518.24892401 356.27587891 520.31942749 C357.10375977 522.33041382 357.10375977 522.33041382 357.74072266 524.65145874 C357.98137451 525.5202063 358.22202637 526.38895386 358.4699707 527.2840271 C358.83795776 528.69373779 358.83795776 528.69373779 359.21337891 530.13192749 C359.47352783 531.11749634 359.73367676 532.10306519 360.00170898 533.11849976 C378.10282718 603.43588845 372.86623899 680.54525226 335.9609375 743.93222046 C327.12154401 758.76061287 317.14066916 772.80088585 307.01269531 786.76571655 C289.58640968 810.81177887 273.33363234 835.4481638 265.27587891 864.31942749 C265.0317627 865.16779175 264.78764648 866.01615601 264.53613281 866.89022827 C260.54293352 881.35471747 259.82057244 895.40751871 259.83837891 910.31942749 C259.83815735 911.18480133 259.83793579 912.05017517 259.83770752 912.94177246 C259.86599315 923.31140932 260.44737587 933.44277332 261.85375977 943.71786499 C262.23703114 946.98797451 262.50628136 950.03505717 262.27587891 953.31942749 C261.61587891 953.97942749 260.95587891 954.63942749 260.27587891 955.31942749 C257.82788086 955.22763062 257.82788086 955.22763062 255.27587891 954.31942749 C253.73364258 952.36434937 253.73364258 952.36434937 252.44384766 949.78817749 C251.95940186 948.84111938 251.47495605 947.89406128 250.97583008 946.91830444 C250.47672119 945.89567505 249.9776123 944.87304565 249.46337891 943.81942749 C248.93784424 942.77295044 248.41230957 941.72647339 247.87084961 940.64828491 C246.32134201 937.54713509 244.79758113 934.43429025 243.27587891 931.31942749 C242.50604523 929.7837697 241.73532882 928.24855382 240.96337891 926.71395874 C230.9192824 906.42999299 223.14329145 883.83026054 223.10791016 861.00692749 C223.10458176 860.23494019 223.10125336 859.46295288 223.0978241 858.66757202 C223.09279215 857.04062488 223.09041461 855.41366756 223.09057617 853.78671265 C223.08840918 851.35342384 223.0702674 848.92060398 223.05126953 846.48739624 C222.99635397 831.79374653 224.66768187 817.80625299 227.90087891 803.44442749 C228.11099609 802.44669312 228.32111328 801.44895874 228.53759766 800.42098999 C233.74379535 776.97887579 242.27062353 754.28055076 250.15087891 731.63192749 C264.23377619 691.26987419 264.23377619 691.26987419 276.46337891 650.31942749 C276.66555023 649.58481293 276.86772156 648.85019836 277.07601929 648.09332275 C289.95848509 602.0417593 289.95848509 602.0417593 294.33837891 554.69442749 C294.31754557 552.56942749 294.29671224 550.44442749 294.27587891 548.31942749 C290.2505253 558.72976371 286.62580298 569.20898276 283.26757812 579.85195923 C263.76068079 641.45953105 235.34857227 699.15273671 191.33837891 746.94442749 C190.7944751 747.53691284 190.25057129 748.12939819 189.69018555 748.73983765 C184.26888489 754.55736551 184.26888489 754.55736551 181.27587891 756.31942749 C179.95587891 756.31942749 178.63587891 756.31942749 177.27587891 756.31942749 C175.58901148 749.45146726 174.59763716 742.58835864 173.74072266 735.57723999 C173.37487174 732.31798833 173.37487174 732.31798833 172.27587891 729.31942749 C171.95425781 730.02325562 171.63263672 730.72708374 171.30126953 731.45223999 C165.48009028 744.17413245 159.64227941 756.86530555 153.27978516 769.32626343 C152.18310454 771.50362251 151.11850092 773.69496127 150.05712891 775.88973999 C138.31797489 800.03691806 124.51434773 828.08095867 105.27587891 847.31942749 C102.3413463 846.95261091 101.41150645 846.45505503 99.27587891 844.31942749 C98.81817183 841.77960193 98.47800182 839.31801711 98.21337891 836.75692749 C98.13539063 836.09757202 98.05740234 835.43821655 97.97705078 834.75888062 C90.59986638 768.24228407 102.76849633 701.00842015 117.27587891 636.31942749 C116.83759766 636.98845093 116.39931641 637.65747437 115.94775391 638.34677124 C99.93915009 662.58744165 82.76506172 686.1748913 63.87353516 708.25302124 C61.54935149 710.97713735 59.31664307 713.76612742 57.08837891 716.56942749 C41.96357952 735.08795395 24.4620049 754.01518053 5.27587891 768.31942749 C4.59267578 768.86985718 3.90947266 769.42028687 3.20556641 769.98739624 C1.33837891 771.44442749 1.33837891 771.44442749 -1.72412109 773.31942749 C-5.25543859 772.78811 -5.25543859 772.78811 -6.72412109 771.31942749 C-11.22391318 703.90908068 25.12316545 631.94654462 54.75341797 573.34921265 C55.11234634 572.63821915 55.47127472 571.92722565 55.84107971 571.19468689 C56.51783066 569.8552908 57.19639526 568.51680902 57.87705994 567.17939758 C59.19123259 564.57898916 60.35269878 562.08896788 61.27587891 559.31942749 C60.70933594 559.92077515 60.70933594 559.92077515 60.13134766 560.53427124 C55.8100029 564.99729943 51.19099881 568.9156459 46.35400391 572.80770874 C43.0018654 575.54301973 39.73238008 578.36105112 36.46337891 581.19442749 C30.17555068 586.61780798 23.72997969 591.80035032 17.15478516 596.87020874 C15.17060704 598.40062471 13.19215828 599.93828936 11.21337891 601.47567749 C-8.85085441 617.00373019 -29.72110418 631.65757548 -51.72412109 644.31942749 C-52.73563232 644.90240601 -52.73563232 644.90240601 -53.76757812 645.49716187 C-62.90001688 650.73014407 -72.1783015 655.69054326 -81.53662109 660.50692749 C-82.4738501 661.00112183 -83.4110791 661.49531616 -84.37670898 662.00448608 C-85.70303345 662.67665161 -85.70303345 662.67665161 -87.05615234 663.36239624 C-87.83708252 663.76482544 -88.6180127 664.16725464 -89.42260742 664.58187866 C-92.21842222 665.47783246 -93.93262766 665.10610707 -96.72412109 664.31942749 C-96.9323477 659.12047928 -96.29099348 654.64152104 -94.78662109 649.69442749 C-94.45718506 648.60134277 -94.45718506 648.60134277 -94.12109375 647.48617554 C-79.9464029 602.39394903 -51.32996219 560.49017192 -22.72412109 523.31942749 C-21.99708984 522.36930786 -21.99708984 522.36930786 -21.25537109 521.3999939 C-15.49079612 513.88685728 -9.49091969 506.59813124 -3.33740234 499.40145874 C-0.93330797 496.5830772 1.39355885 493.70770796 3.71337891 490.81942749 C7.70631548 485.90059258 11.94755431 481.25343545 16.29125977 476.64559937 C18.51203475 474.28165489 20.47146167 472.02605335 22.27587891 469.31942749 C18.30539851 470.80634829 14.54563936 472.62807782 10.74365234 474.49154663 C-33.81906329 496.23999815 -81.76986311 511.13374981 -130.09912109 521.81942749 C-131.88334473 522.22113159 -131.88334473 522.22113159 -133.70361328 522.63095093 C-134.81124023 522.86846069 -135.91886719 523.10597046 -137.06005859 523.35067749 C-138.03507324 523.56272827 -139.01008789 523.77477905 -140.01464844 523.99325562 C-142.85805077 524.33555022 -144.96800431 524.0393415 -147.72412109 523.31942749 C-147.32640573 517.10208126 -145.25748922 513.2927224 -141.78662109 508.19442749 C-141.29154053 507.45088013 -140.79645996 506.70733276 -140.28637695 505.94125366 C-126.33508784 485.21788289 -109.31609862 466.71133423 -91.65258789 449.11752319 C-90.02355537 447.4939052 -88.40001381 445.86493146 -86.77685547 444.23544312 C-81.26381969 438.71895358 -75.66088265 433.38185792 -69.72412109 428.31942749 C-68.17930849 426.90619199 -66.63716785 425.4900234 -65.09912109 424.06942749 C-60.05725771 419.52020419 -54.77229411 415.35040029 -49.40771484 411.19442749 C-46.97707918 409.30899914 -44.57573643 407.39463222 -42.19677734 405.44442749 C-25.93249255 392.13283186 -8.41352499 380.63268291 9.27587891 369.31942749 C6.85901926 369.56764551 4.44239144 369.81786065 2.02587891 370.06942749 C1.20595459 370.15450562 0.38603027 370.23958374 -0.45874023 370.32723999 C-6.31561707 370.94205887 -12.16708401 371.59613613 -18.01708984 372.27255249 C-27.24757455 373.33789567 -36.48339017 374.34714494 -45.72412109 375.31942749 C-47.47233154 375.50601929 -47.47233154 375.50601929 -49.25585938 375.69638062 C-87.56926925 379.61273223 -131.65229997 381.37796468 -169.72412109 374.31942749 C-170.38412109 373.65942749 -171.04412109 372.99942749 -171.72412109 372.31942749 C-171.61674753 368.96259073 -170.89290176 367.51726325 -168.70458984 364.95223999 C-143.04026415 341.90818811 -113.02818857 323.34653437 -81.99511719 308.42245483 C-79.43118122 307.17714601 -76.88496972 305.8986583 -74.33740234 304.62020874 C-42.94793141 289.0239216 -9.98685709 276.81327511 24.27587891 269.31942749 C24.27587891 268.98942749 24.27587891 268.65942749 24.27587891 268.31942749 C23.60983643 268.24949585 22.94379395 268.17956421 22.25756836 268.10751343 C-34.58235027 262.08922602 -90.91490484 252.0483865 -145.62548828 235.2696228 C-148.44840915 234.40397452 -151.2761317 233.55729958 -154.10693359 232.71786499 C-164.4304175 229.61313108 -164.4304175 229.61313108 -166.72412109 227.31942749 C-166.68896484 224.89364624 -166.68896484 224.89364624 -165.72412109 222.31942749 C-138.17986631 201.86482437 -92.93537312 194.39683126 -59.72412109 187.31942749 C-58.74113037 187.10833344 -58.74113037 187.10833344 -57.73828125 186.89297485 C-22.49041114 179.35011621 13.29751097 175.79236739 49.27587891 174.31942749 C48.27681519 174.03446411 48.27681519 174.03446411 47.25756836 173.7437439 C-6.51567193 158.31980826 -57.71907918 136.69946766 -106.16162109 108.69442749 C-107.1688623 108.11434937 -108.17610352 107.53427124 -109.21386719 106.93661499 C-110.14408691 106.39005249 -111.07430664 105.84348999 -112.03271484 105.28036499 C-113.25172485 104.5656604 -113.25172485 104.5656604 -114.49536133 103.83651733 C-116.8729788 102.21810185 -118.75743671 100.41073513 -120.72412109 98.31942749 C-120.14599609 95.95223999 -120.14599609 95.95223999 -118.72412109 93.31942749 C-115.80224609 92.06161499 -115.80224609 92.06161499 -111.97412109 91.19442749 C-111.28036377 91.0361145 -110.58660645 90.87780151 -109.87182617 90.71469116 C-100.26637494 88.63219999 -90.48151151 87.43514164 -80.72412109 86.31942749 C-79.98810669 86.23024048 -79.25209229 86.14105347 -78.49377441 86.04916382 C-68.99589951 85.03256721 -59.47166187 85.11602718 -49.93115234 85.08114624 C-48.97617041 85.07707071 -48.02118847 85.07299519 -47.03726768 85.06879616 C-41.95315146 85.04799258 -36.86906153 85.03368287 -31.78491211 85.02426147 C-27.67114892 85.01552397 -23.55773713 84.99493862 -19.4440918 84.96273804 C19.04420804 84.66823019 57.25548442 86.7291355 94.97363281 94.94784546 C97.44338543 95.34646301 99.77840723 95.38179529 102.27587891 95.31942749 C94.39580853 88.91687031 86.18162271 83.16568028 77.71337891 77.56942749 C54.57454146 62.27532989 32.16001885 46.08561677 10.35107422 28.9493103 C8.37825491 27.39983481 6.4019159 25.85498238 4.42431641 24.31161499 C-14.59059097 9.45295761 -14.59059097 9.45295761 -18.72412109 5.31942749 C-17.45569771 -3.05216685 -6.75546204 0.0210413 0 0 Z " fill="#B3D133" transform="translate(248.72412109375,30.680572509765625)"/>
<path d="M0 0 C17.2262197 8.55632011 30.69768738 47.42129436 36.421875 64.234375 C40.09638118 76.1518226 37.61797738 84.87242315 32.53710938 95.86938477 C30.2428784 100.9388462 29.04197566 104.32421158 30.77734375 109.8828125 C32.51122778 112.47668173 32.51122778 112.47668173 34.83984375 114.6953125 C35.6596875 115.55898438 36.47953125 116.42265625 37.32421875 117.3125 C38.13375 118.16070312 38.94328125 119.00890625 39.77734375 119.8828125 C47.6412343 128.72182547 53.62604159 138.82675547 59.77734375 148.8828125 C60.38594238 149.87394043 60.99454102 150.86506836 61.62158203 151.88623047 C92.50703163 202.30903683 92.50703163 202.30903683 89.77734375 219.8828125 C88.10477872 224.13224805 84.82702319 226.02580654 80.82421875 227.90625 C74.42281381 230.68055963 67.72692336 231.37077142 60.86523438 232.3046875 C59.38893555 232.52898437 59.38893555 232.52898437 57.8828125 232.7578125 C56.99746826 232.87898437 56.11212402 233.00015625 55.19995117 233.125 C52.12147157 234.08797498 50.742151 235.34572297 48.77734375 237.8828125 C48.87808455 244.37723624 51.04809916 249.49691425 53.69335938 255.32617188 C55.57373882 259.6924767 56.34437381 263.14446232 55.77734375 267.8828125 C54.31640625 270.17578125 54.31640625 270.17578125 52.40234375 272.0703125 C49.93638606 274.56164012 48.19262005 276.6591276 46.77734375 279.8828125 C47.62296875 280.8934375 48.46859375 281.9040625 49.33984375 282.9453125 C51.41109895 285.86389938 51.77419094 286.70310207 51.83984375 290.4453125 C49.63056807 297.5929691 44.27386708 302.97514352 39.5078125 308.58984375 C36.56749296 314.18507936 38.19594173 319.20908398 39.96875 325.03125 C40.19183838 325.71711182 40.41492676 326.40297363 40.64477539 327.10961914 C44.24741405 338.24401238 46.66742604 351.8033434 42.21484375 363.0703125 C36.93541621 372.37391907 28.99877508 379.39909899 18.77734375 382.6953125 C1.82604825 387.10836033 -16.11363859 384.52304401 -33.28515625 382.8828125 C-58.64270565 378.82524743 -58.64270565 378.82524743 -81.97265625 385.9453125 C-88.80252647 394.86208751 -92.03196812 405.35033611 -93.14428711 416.41357422 C-94.2069998 426.78307383 -96.77798476 434.63513552 -101.93505859 443.61425781 C-103.99104421 447.23659728 -105.93351888 450.91747839 -107.87524414 454.60205078 C-108.90842467 456.56229885 -109.95248993 458.51686508 -111.00952148 460.46435547 C-116.68008242 471.11643444 -119.9444413 480.74538457 -119.72265625 492.8828125 C-119.71057129 493.9658667 -119.69848633 495.0489209 -119.68603516 496.16479492 C-119.43791959 506.39993786 -117.84270534 516.00693397 -115.22265625 525.8828125 C-115.01366699 526.67929199 -114.80467773 527.47577148 -114.58935547 528.29638672 C-109.27382203 548.08131981 -101.58548994 567.03781535 -93.34765625 585.7578125 C-93.05058777 586.43359344 -92.75351929 587.10937439 -92.44744873 587.80563354 C-89.55321671 594.38440702 -86.64314453 600.95557922 -83.68997192 607.50811768 C-82.39414343 610.3971955 -81.12341126 613.29732718 -79.84765625 616.1953125 C-79.37730957 617.21931152 -78.90696289 618.24331055 -78.42236328 619.29833984 C-75.58679114 625.79980167 -74.05874002 631.75878774 -75.22265625 638.8828125 C-77.22265625 640.8828125 -77.22265625 640.8828125 -80.046875 641.30859375 C-84.2639761 640.74320135 -85.31971805 639.29011069 -88.03515625 636.0703125 C-88.46256104 635.57402344 -88.88996582 635.07773437 -89.33032227 634.56640625 C-92.17991917 631.23214107 -94.9096127 627.79881014 -97.66015625 624.3828125 C-101.61682476 619.47374236 -105.92121415 615.05522582 -110.44921875 610.68359375 C-112.48863437 608.62407122 -114.35645347 606.58354466 -116.22827148 604.38378906 C-120.88285992 599.04343804 -125.89346578 594.06742429 -130.90625 589.06640625 C-131.93097733 588.04100326 -132.95555636 587.01545204 -133.97999573 585.98976135 C-136.11566055 583.85263187 -138.25309833 581.71729641 -140.3918457 579.58325195 C-143.11274041 576.86805375 -145.82911935 574.14838917 -148.54417324 571.42735195 C-150.65549439 569.31239175 -152.769223 567.19985043 -154.88365364 565.08799934 C-155.88536716 564.08694587 -156.88635802 563.08516865 -157.88656425 562.08260918 C-162.9794904 556.98032827 -168.10542647 551.98810659 -173.57835388 547.29353333 C-175.47967351 545.66230586 -177.30755769 543.96646044 -179.1171875 542.234375 C-179.7568042 541.62634033 -180.3964209 541.01830566 -181.05541992 540.3918457 C-181.70873291 539.77011475 -182.3620459 539.14838379 -183.03515625 538.5078125 C-188.36092478 533.47282046 -193.77894112 528.68807896 -199.515625 524.12109375 C-202.69914132 521.48883567 -205.70890972 518.70588804 -208.72265625 515.8828125 C-213.44758328 511.4630543 -218.29310713 507.28404291 -223.33984375 503.23046875 C-226.70860694 500.48707217 -229.99758867 497.65999703 -233.28515625 494.8203125 C-237.2890273 491.36485766 -241.31773172 487.96968002 -245.47265625 484.6953125 C-250.59365651 480.64929907 -255.44504433 476.32730653 -260.22265625 471.8828125 C-260.83238281 471.40457031 -261.44210937 470.92632813 -262.0703125 470.43359375 C-263.22265625 468.8828125 -263.22265625 468.8828125 -263.265625 466.69140625 C-261.73387585 462.56658363 -259.18698528 459.42691604 -256.53515625 455.9453125 C-230.21907774 420.37848942 -210.91276751 382.30117811 -206.22265625 337.8828125 C-206.08126221 336.63238159 -206.08126221 336.63238159 -205.93701172 335.35668945 C-201.92370453 295.01900349 -206.55259951 254.18815802 -212.54191589 214.323349 C-215.66440928 193.50735989 -215.66440928 193.50735989 -213.41015625 190.3203125 C-212.36541475 189.48510133 -211.29916934 188.67665257 -210.22265625 187.8828125 C-198.5898236 178.29013937 -191.34290193 167.94969112 -189.22265625 152.8828125 C-188.82756219 145.4770959 -189.22446306 139.00137573 -191.22265625 131.8828125 C-191.53125 128.88671875 -191.53125 128.88671875 -191.22265625 125.8828125 C-189.6328125 123.96875 -189.6328125 123.96875 -187.28515625 122.2578125 C-186.3621875 121.57460938 -185.43921875 120.89140625 -184.48828125 120.1875 C-183.410625 119.42695313 -182.33296875 118.66640625 -181.22265625 117.8828125 C-180.00877982 117.01088252 -178.79525565 116.13846199 -177.58203125 115.265625 C-173.97832216 112.68925392 -170.34936748 110.15039319 -166.71386719 107.61914062 C-164.09048725 105.79069314 -161.47280444 103.95427496 -158.85546875 102.1171875 C-148.53101093 94.88513139 -138.13691613 87.77323831 -127.62866211 80.81103516 C-120.63020887 76.16908497 -113.662154 71.48400078 -106.70703125 66.77734375 C-105.76837219 66.14252579 -104.82971313 65.50770782 -103.86260986 64.85365295 C-100.05236103 62.27658486 -96.24212578 59.69951885 -92.43566895 57.11685181 C-82.24704723 50.20444326 -72.02141523 43.40072506 -61.54296875 36.93457031 C-57.73045843 34.5786632 -53.97044752 32.15211743 -50.22265625 29.6953125 C-40.2336503 23.19566582 -30.1273553 16.88495278 -19.99707031 10.60839844 C-17.48861731 9.04823073 -14.99105102 7.47224006 -12.49609375 5.890625 C-11.15535644 5.05403244 -9.81424504 4.21803891 -8.47265625 3.3828125 C-7.88339355 3.00302246 -7.29413086 2.62323242 -6.68701172 2.23193359 C-4.35913084 0.80158243 -2.7742485 -0.14626969 0 0 Z " fill="#B3D132" transform="translate(835.22265625,348.1171875)"/>
<path d="M0 0 C3.74496086 1.50243601 6.340589 3.87269236 9.31640625 6.5546875 C10.23897217 7.36619263 10.23897217 7.36619263 11.18017578 8.1940918 C13.00558045 9.80433741 14.8188026 11.42727827 16.62890625 13.0546875 C17.57121094 13.89644531 18.51351562 14.73820312 19.484375 15.60546875 C21.13431804 17.08658041 22.78031557 18.57210194 24.421875 20.0625 C26.36516626 21.81662131 28.33250073 23.53441444 30.31640625 25.2421875 C36.1673031 30.35587135 41.84210144 35.65966658 47.47607422 41.01025391 C48.97684411 42.4354577 50.48137346 43.85670869 51.98876953 45.27490234 C54.38523728 47.53917114 56.7591412 49.82501806 59.12890625 52.1171875 C59.88937256 52.83116699 60.64983887 53.54514648 61.43334961 54.28076172 C62.4737439 55.30000732 62.4737439 55.30000732 63.53515625 56.33984375 C64.46811523 57.23521851 64.46811523 57.23521851 65.41992188 58.14868164 C66.62890625 60.0546875 66.62890625 60.0546875 66.46875 62.64599609 C65.23645421 66.18024908 63.12868283 67.42304399 60.12890625 69.6171875 C59.26048096 70.25889893 59.26048096 70.25889893 58.37451172 70.91357422 C56.47099451 72.31089574 54.5521645 73.68468877 52.62890625 75.0546875 C51.99887695 75.50730957 51.36884766 75.95993164 50.71972656 76.42626953 C45.72009027 80.01318548 40.67754942 83.5372394 35.62890625 87.0546875 C33.78515448 88.34244538 31.94140456 89.63020592 30.09765625 90.91796875 C21.07366142 97.21324866 12.03101806 103.47949503 2.94140625 109.6796875 C-6.04041974 115.80670748 -14.94892273 122.03521573 -23.84619141 128.28417969 C-26.3762702 130.05831732 -28.91014688 131.8268903 -31.4453125 133.59375 C-41.75292025 140.78112562 -51.98485459 148.06300084 -62.15332031 155.44580078 C-65.88798689 158.15511967 -69.62998113 160.85428071 -73.37109375 163.5546875 C-74.87240876 164.63930502 -76.37371085 165.72394043 -77.875 166.80859375 C-80.86018483 168.96474049 -83.84730763 171.11816254 -86.8359375 173.26953125 C-88.32694657 174.34357837 -89.81783212 175.41779697 -91.30859375 176.4921875 C-92.40433716 177.28181885 -92.40433716 177.28181885 -93.5222168 178.08740234 C-100.08599363 182.82802751 -106.59962211 187.6358595 -113.09155273 192.47436523 C-123.35759188 200.08796667 -123.35759188 200.08796667 -126.98828125 199.96875 C-129.8054414 198.88806889 -130.71921512 197.83917213 -132.49609375 195.4296875 C-141.61827454 184.38808906 -154.8797092 180.06603346 -168.57080078 178.18066406 C-171.48342946 177.7487205 -173.91170667 177.33865645 -176.4375 175.77734375 C-177.37109375 174.0546875 -177.37109375 174.0546875 -177.40234375 171.78125 C-175.97641911 168.01119168 -173.53961593 165.37083123 -170.87109375 162.4296875 C-169.76580797 161.17937383 -168.66165056 159.92806181 -167.55859375 158.67578125 C-167.01332031 158.0607373 -166.46804688 157.44569336 -165.90625 156.81201172 C-163.82354156 154.4278935 -161.84673004 151.96536455 -159.87109375 149.4921875 C-155.52258329 144.13166006 -150.86518027 139.09983025 -146.15625 134.05859375 C-143.94321961 131.68574572 -141.79506516 129.26888732 -139.68359375 126.8046875 C-136.56122473 123.18851316 -133.20541399 119.84917729 -129.77734375 116.5234375 C-127.79569401 114.49031633 -125.93908066 112.42486984 -124.0859375 110.27734375 C-120.37418222 106.00160096 -116.4476446 101.98301337 -112.43359375 97.9921875 C-111.76908203 97.32380859 -111.10457031 96.65542969 -110.41992188 95.96679688 C-107.14971148 92.70293024 -103.83471404 89.54581286 -100.3359375 86.52734375 C-96.31381438 83.05657336 -92.58909549 79.34596231 -88.87109375 75.5546875 C-84.52150223 71.16297564 -80.18135725 66.84742107 -75.45703125 62.85546875 C-72.52813791 60.3269672 -69.70599193 57.68763675 -66.87109375 55.0546875 C-59.40768345 48.14044564 -51.73415861 41.49718314 -44.00292969 34.88549805 C-40.18535521 31.61871034 -36.38574534 28.33226772 -32.59667969 25.0324707 C-26.7845916 19.97322455 -20.94607565 14.96327952 -14.9375 10.13671875 C-13.14901429 8.6857859 -11.38764915 7.20105194 -9.6484375 5.69140625 C-8.33552734 4.57185547 -8.33552734 4.57185547 -6.99609375 3.4296875 C-6.22523438 2.75679688 -5.454375 2.08390625 -4.66015625 1.390625 C-2.37109375 0.0546875 -2.37109375 0.0546875 0 0 Z " fill="#B3D132" transform="translate(767.37109375,262.9453125)"/>
<path d="M0 0 C11.26969873 6.17367613 17.5166871 14.72643156 21.6171875 26.8203125 C23.65574379 38.4276024 22.54289866 50.51649942 16.375 60.625 C9.38077151 70.32777775 -0.10547829 76.80776151 -12 79 C-26.02969365 80.0503514 -37.9663015 78.33023949 -49.07421875 68.8671875 C-57.55820401 60.64133567 -62.93008205 49.332711 -63.3125 37.4375 C-63.13932652 25.78292479 -57.73564631 16.17684987 -49.96875 7.8125 C-36.51237128 -5.05881877 -16.90561369 -9.17977674 0 0 Z " fill="#B2D032" transform="translate(614,457)"/>
<path d="M0 0 C4.95 0 9.9 0 15 0 C15.33 0.99 15.66 1.98 16 3 C10.22192976 3.2358396 5.48675196 2.86783046 0 1 C0 0.67 0 0.34 0 0 Z " fill="#B7D140" transform="translate(256,116)"/>
<path d="M0 0 C0 0.33 0 0.66 0 1 C-7.425 2.485 -7.425 2.485 -15 4 C-15 3.34 -15 2.68 -15 2 C-10.40019919 -2.13982073 -5.65040248 -0.91064739 0 0 Z " fill="#F7F9E6" transform="translate(278,299)"/>
<path d="M0 0 C0.33 0.99 0.66 1.98 1 3 C-2.3 5.97 -5.6 8.94 -9 12 C-9 9 -9 9 -7.03125 6.73828125 C-5.77828125 5.53751953 -5.77828125 5.53751953 -4.5 4.3125 C-3.6646875 3.50425781 -2.829375 2.69601562 -1.96875 1.86328125 C-1.3190625 1.24839844 -0.669375 0.63351562 0 0 Z " fill="#A8CA18" transform="translate(640,377)"/>
<path d="M0 0 C0 3 0 3 -2.1171875 5.2265625 C-3.02726563 6.01804687 -3.93734375 6.80953125 -4.875 7.625 C-5.77992188 8.42164063 -6.68484375 9.21828125 -7.6171875 10.0390625 C-10 12 -10 12 -12 13 C-10.53438126 9.60312324 -8.63352456 7.39277314 -6 4.8125 C-4.948125 3.77029297 -4.948125 3.77029297 -3.875 2.70703125 C-2 1 -2 1 0 0 Z " fill="#ADCC27" transform="translate(665,352)"/>
<path d="M0 0 C0 3.77910478 -0.99703962 4.46106101 -3.5 7.1875 C-4.1496875 7.90292969 -4.799375 8.61835938 -5.46875 9.35546875 C-5.9740625 9.89816406 -6.479375 10.44085937 -7 11 C-7.66 10.67 -8.32 10.34 -9 10 C-7.8758824 8.70756532 -6.75067408 7.41607925 -5.625 6.125 C-4.99851562 5.40570313 -4.37203125 4.68640625 -3.7265625 3.9453125 C-2.52573166 2.5923402 -1.2791655 1.2791655 0 0 Z " fill="#A8CA1A" transform="translate(269,503)"/>
<path d="M0 0 C0.33 0.66 0.66 1.32 1 2 C0.22265625 3.7265625 0.22265625 3.7265625 -0.9375 5.625 C-1.618125 6.73875 -2.29875 7.8525 -3 9 C-3.66 8.67 -4.32 8.34 -5 8 C-3.8141763 4.62496331 -2.72426311 2.35277269 0 0 Z " fill="#F5F7E4" transform="translate(311,588)"/>
<path d="M0 0 C0 4.38968456 -2.12805101 5.76905739 -5 9 C-5.66 8.67 -6.32 8.34 -7 8 C-4.69 5.36 -2.38 2.72 0 0 Z " fill="#AAC91C" transform="translate(623,395)"/>
<path d="M0 0 C0 0.99 0 1.98 0 3 C-2.375 4.75 -2.375 4.75 -5 6 C-5.66 5.67 -6.32 5.34 -7 5 C-4.69 3.35 -2.38 1.7 0 0 Z " fill="#A9CA1E" transform="translate(721,420)"/>
</svg>
